# xmcd
#
# Track frame offsets:
#	180
#	14162
#	35517
#	47786
#	63535
#	79736
#	90964
#	107166
#	125288
#	148762
#	168763
#	182812
#	200596
#	220427
#	233732
#	247970
#	268960
#	281152
#
# Disc length: 4003 seconds
#
# Revision: 1
# Processed by: cddbd v1.5.2PL0 Copyright (c) Steve Scherf et al.
# Submitted via: audiograbber 1.83.01
#
DISCID=0d0fa112
DTITLE=Tommy Alverson - Texasongs
DYEAR=1900
DGENRE=Country
TTITLE0=I Can't Afford To Fall In Love
TTITLE1=After Love
TTITLE2=Two More Like You
TTITLE3=What's The Matter With My Baby
TTITLE4=I Can't Help Myself Darlin'
TTITLE5=Movin' On
TTITLE6=Texas Woman
TTITLE7=Back Before The War
TTITLE8=Purty Boys
TTITLE9=Second Hand Love
TTITLE10=My Old Hat
TTITLE11=How Good A Bad Woman Feels
TTITLE12=House of Broken Hearts
TTITLE13=Two Of A Kind
TTITLE14=Make You Mine
TTITLE15=Pickin' and Grinnin'
TTITLE16=This Bottle
TTITLE17=Always In My Heart
EXTD=
EXTT0=
EXTT1=
EXTT2=
EXTT3=
EXTT4=
EXTT5=
EXTT6=
EXTT7=
EXTT8=
EXTT9=
EXTT10=
EXTT11=
EXTT12=
EXTT13=
EXTT14=
EXTT15=
EXTT16=
EXTT17=
PLAYORDER=
